# xmcd
#
# Track frame offsets: 
#        150
#        13997
#        28497
#        41995
#        55490
#        69076
#        83087
#        96675
#        110375
#        123931
#        136664
#        148065
#        161170
#        173235
#        188536
#        202429
#        217226
#        231635
#        245977
#        258862
#
# Disc length: 3608 seconds
#
# Revision: 0
# Processed by: cddbd v1.5.2PL0 Copyright (c) Steve Scherf et al.
# Submitted via: ExactAudioCopy v0.95b3
#
DISCID=410e1614
DTITLE=Louis Armstrong  - Volume 7 1925 Complete Edition
DYEAR=1900
DGENRE=
TTITLE0=I My My Swiss
TTITLE1=Alone At Last
TTITLE2=You Dirty Mistreater
TTITLE3=Come On. Coot Do That Thing
TTITLE4=Have Your Chill. I'll Be Here When Your Fever Rises
TTITLE5=(If You Miss Me Here.) Find Me At The Greasy Spoon
TTITLE6=(If You Miss Me Here.) Find Me At The Greasy Spoon
TTITLE7=Speak Now Or Hereafter Hold Your Peace
TTITLE8=(You Never Can Tell) When Your Man Is Going To Put You Down
TTITLE9=Just Wait 'Til You See My Baby Do The Charleston
TTITLE10=Livin' High (Sometimes)
TTITLE11=Coal Cart Blues
TTITLE12=Santa Claus Blues
TTITLE13=Santa Claus Blues
TTITLE14=Tnt
TTITLE15=Carolina Stomp
TTITLE16=Squeeze Me
TTITLE17=You Can't Shush Katie
TTITLE18=Lycy Long
TTITLE19=I Ain't Gonna Play No Second Fiddle
EXTD=
EXTT0=
EXTT1=
EXTT2=
EXTT3=
EXTT4=
EXTT5=
EXTT6=
EXTT7=
EXTT8=
EXTT9=
EXTT10=
EXTT11=
EXTT12=
EXTT13=
EXTT14=
EXTT15=
EXTT16=
EXTT17=
EXTT18=
EXTT19=
PLAYORDER=
